<?xml version="1.0" encoding="utf-8"?>
<!-- Generator: Adobe Illustrator 25.4.1, SVG Export Plug-In . SVG Version: 6.00 Build 0)  -->
<svg version="1.1" id="图层_1" xmlns="http://www.w3.org/2000/svg" xmlns:xlink="http://www.w3.org/1999/xlink" x="0px" y="0px"
	 viewBox="0 0 339 60" style="enable-background:new 0 0 339 60;" xml:space="preserve">
<style type="text/css">
	.st0{fill-rule:evenodd;clip-rule:evenodd;fill:#0E1D23;}
	.st1{fill-rule:evenodd;clip-rule:evenodd;fill:#26C6FF;}
	.st2{fill:#26C6FF;}
</style>
<g id="单行底背景_00000018209290985210901390000000964341829981838753_">
	<g id="单行底背景">
		<rect y="28" class="st0" width="339" height="3"/>
		<g>
			<polygon class="st0" points="0,30.22 0,53.08 5.63,60 331.85,60 339,52.84 339,30.22 			"/>
			<g>
				<g>
					<polygon class="st0" points="336.79,43 336.79,45.96 337.52,45.96 337.52,53.04 332.05,58.52 324.97,58.52 324.97,57.78 
						322.01,57.78 322.01,60 324.23,60 324.97,60 333.09,60 333.09,59.57 338.57,54.09 339,54.09 339,45.96 339,45.22 339,43 					
						"/>
					<rect x="338.09" y="34.37" class="st0" width="0.82" height="5.63"/>
					<rect x="338.09" y="32.61" class="st0" width="0.82" height="0.7"/>
					<rect x="338.09" y="30.85" class="st0" width="0.82" height="0.7"/>
				</g>
				<g>
					<polygon class="st1" points="336.79,43 336.79,45.96 337.52,45.96 337.52,53.04 332.05,58.52 324.97,58.52 324.97,57.78 
						322.01,57.78 322.01,60 324.23,60 324.97,60 333.09,60 333.09,59.57 338.57,54.09 339,54.09 339,45.96 339,45.22 339,43 					
						"/>
					<rect x="338.09" y="34.37" class="st1" width="0.82" height="5.63"/>
					<rect x="338.09" y="32.61" class="st1" width="0.82" height="0.7"/>
					<rect x="338.09" y="30.85" class="st1" width="0.82" height="0.7"/>
				</g>
			</g>
			<g>
				<polygon class="st1" points="6.33,58.52 3.01,54.43 3.59,53.95 1.71,51.67 0,53.08 0.76,54 5.63,60 5.63,60 14.49,60 
					14.49,58.52 				"/>
				<rect x="0.09" y="39.37" class="st1" width="0.82" height="5.63"/>
				<rect x="0.09" y="37.61" class="st1" width="0.82" height="0.7"/>
				<rect x="0.09" y="35.85" class="st1" width="0.82" height="0.7"/>
				<rect x="0.09" y="34.09" class="st1" width="0.82" height="0.7"/>
				<rect x="0.09" y="32.33" class="st1" width="0.82" height="0.7"/>
				<rect x="0.09" y="30.57" class="st1" width="0.82" height="0.7"/>
			</g>
		</g>
		<g>
			<polygon class="st0" points="339,28.73 339,12.17 331.86,5.04 6.87,5.04 0,12.09 0,28.73 			"/>
			<g>
				<g id="矩形_20_拷贝_7_00000091693675257000579860000008490238493183633334_">
					<g>
						<rect x="338.09" y="27.14" class="st1" width="0.82" height="0.7"/>
					</g>
				</g>
				<g id="矩形_20_拷贝_7_00000119097854408190871630000014289241673136535475_">
					<g>
						<rect x="338.09" y="25.38" class="st1" width="0.82" height="0.7"/>
					</g>
				</g>
				<g id="矩形_20_拷贝_7_00000163038293216391050600000013687426631632626823_">
					<g>
						<rect x="338.09" y="23.62" class="st1" width="0.82" height="0.7"/>
					</g>
				</g>
				<g id="矩形_20_拷贝_7_00000108284537538579732420000006735096854202838421_">
					<g>
						<path class="st1" d="M338.09,19.05v3.52h0.82v-3.52H338.09z"/>
					</g>
				</g>
				<g>
					<rect x="323.75" y="5.04" class="st2" width="1" height="2"/>
					<rect x="319.76" y="5.04" class="st2" width="1" height="2"/>
					<rect x="314.76" y="5.04" class="st2" width="1" height="2"/>
					<rect x="310.76" y="5.04" class="st2" width="1" height="2"/>
					<rect x="306.77" y="5.04" class="st2" width="1" height="2"/>
					<rect x="301.77" y="5.04" class="st2" width="1" height="2"/>
					<rect x="297.77" y="5.04" class="st2" width="1" height="2"/>
					<rect x="292.78" y="5.04" class="st2" width="1" height="2"/>
					<rect x="288.78" y="5.04" class="st2" width="1" height="2"/>
					<rect x="284.78" y="5.04" class="st2" width="1" height="2"/>
					<rect x="279.79" y="5.04" class="st2" width="1" height="2"/>
					<rect x="275.79" y="5.04" class="st2" width="1" height="2"/>
					<rect x="271.79" y="5.04" class="st2" width="1" height="2"/>
					<rect x="266.8" y="5.04" class="st2" width="1" height="2"/>
					<rect x="262.8" y="5.04" class="st2" width="1" height="2"/>
					<rect x="257.81" y="5.04" class="st2" width="1" height="2"/>
					<rect x="253.81" y="5.04" class="st2" width="1" height="2"/>
					<rect x="249.81" y="5.04" class="st2" width="1" height="2"/>
					<rect x="244.82" y="5.04" class="st2" width="1" height="2"/>
					<rect x="240.82" y="5.04" class="st2" width="1" height="2"/>
					<path class="st2" d="M333.36,3.36c-1.27,0-2.29,1.03-2.29,2.29c0,1.27,1.03,2.29,2.29,2.29c1.27,0,2.29-1.03,2.29-2.29
						C335.65,4.38,334.62,3.36,333.36,3.36z"/>
					<path class="st2" d="M333.36,0c-3.11,0-5.65,2.53-5.65,5.65s2.53,5.65,5.65,5.65c3.11,0,5.65-2.54,5.65-5.65S336.47,0,333.36,0
						z M333.36,10.3c-2.56,0-4.65-2.09-4.65-4.65S330.79,1,333.36,1S338,3.09,338,5.65S335.92,10.3,333.36,10.3z"/>
				</g>
			</g>
			<g>
				<polygon class="st1" points="16.99,5.04 16.99,7.26 14.03,7.26 14.03,6.52 6.95,6.52 1.48,12 1.48,19.08 2.22,19.08 2.22,22.04 
					0,22.04 0,19.82 0,19.08 0,10.95 0.43,10.95 5.91,5.47 5.91,5.04 				"/>
				<rect x="0.09" y="24.04" class="st1" width="0.82" height="3.52"/>
			</g>
		</g>
	</g>
</g>
</svg>
