<?xml version="1.0" encoding="utf-8"?>
<!-- Generator: Adobe Illustrator 25.4.1, SVG Export Plug-In . SVG Version: 6.00 Build 0)  -->
<svg version="1.1" id="图层_1" xmlns="http://www.w3.org/2000/svg" xmlns:xlink="http://www.w3.org/1999/xlink" x="0px" y="0px"
	 viewBox="0 0 28 28" style="enable-background:new 0 0 28 28;" xml:space="preserve">
<style type="text/css">
	.st0{fill:#44C6FF;}
</style>
<g id="设备_00000055681919944069954360000011341721113541138585_">
	<g id="设备">
		<g>
			<path class="st0" d="M25.09,27.73H2.91c-0.55,0-0.99-0.44-0.99-0.99V1.25c0-0.55,0.44-0.99,0.99-0.99h22.18
				c0.55,0,0.99,0.44,0.99,0.99v25.49C26.08,27.29,25.64,27.73,25.09,27.73z M5.38,25.26h17.24c0.55,0,0.99-0.44,0.99-0.99V3.73
				c0-0.55-0.44-0.99-0.99-0.99H5.38c-0.55,0-0.99,0.44-0.99,0.99v20.55C4.39,24.82,4.84,25.26,5.38,25.26z"/>
		</g>
		<g>
			<path class="st0" d="M17.59,22.76h-6.95c-0.55,0-0.99-0.44-0.99-0.99v-0.49c0-0.55,0.44-0.99,0.99-0.99h6.95
				c0.55,0,0.99,0.44,0.99,0.99v0.49C18.57,22.32,18.13,22.76,17.59,22.76z"/>
		</g>
	</g>
</g>
</svg>
