<?xml version="1.0" encoding="utf-8"?>
<!-- Generator: Adobe Illustrator 25.4.1, SVG Export Plug-In . SVG Version: 6.00 Build 0)  -->
<svg version="1.1" id="图层_1" xmlns="http://www.w3.org/2000/svg" xmlns:xlink="http://www.w3.org/1999/xlink" x="0px" y="0px"
	 viewBox="0 0 28 28" style="enable-background:new 0 0 28 28;" xml:space="preserve">
<style type="text/css">
	.st0{fill:#9FA5A7;}
</style>
<g id="主页_x5F_未选中_00000019654428053747205780000002325868725799388343_">
	<g id="主页_x5F_未选中">
		<g>
			<path class="st0" d="M25.77,27.32H2.23c-0.55,0-1-0.45-1-1V9.08c0-0.36,0.2-0.7,0.52-0.88l11.77-6.46c0.3-0.16,0.66-0.16,0.96,0
				L26.25,8.2c0.32,0.18,0.52,0.51,0.52,0.88v17.24C26.77,26.87,26.32,27.32,25.77,27.32z M4.73,24.82h18.53c0.55,0,1-0.45,1-1
				V10.56c0-0.36-0.2-0.7-0.52-0.88L14.48,4.6c-0.3-0.16-0.66-0.16-0.96,0L4.25,9.68c-0.32,0.18-0.52,0.51-0.52,0.88v13.26
				C3.73,24.37,4.18,24.82,4.73,24.82z"/>
		</g>
		<g>
			<path class="st0" d="M19.71,22.33H9.23c-0.55,0-1-0.45-1-1v-0.5c0-0.55,0.45-1,1-1h10.48c0.55,0,1,0.45,1,1v0.5
				C20.71,21.88,20.26,22.33,19.71,22.33z"/>
		</g>
	</g>
</g>
</svg>
