<svg xmlns="http://www.w3.org/2000/svg" viewBox="0 0 339 20.55"><defs><style>.cls-1{fill:#0e1d23;fill-rule:evenodd;}.cls-2{fill:#44c6ff;}</style></defs><title>画板 1</title><g id="图层_2" data-name="图层 2"><polygon class="cls-1" points="323.6 7.86 318.44 13.01 283.65 12.98 271.43 0.55 17.72 0.55 0 16.93 0 20.55 339 20.55 339 7.9 323.6 7.86"/><path class="cls-2" d="M336,4.91a3,3,0,0,0-3,2.45h-9.34l-5.11,5.12h-34.3L272.93,1h9.66L286,5.73h9.38a4,4,0,1,0,0-1h-8.9L283.1,0H17.6L7.14,9.79a4.43,4.43,0,0,0-2.67-.91,4.5,4.5,0,1,0,4.47,4.5,4.43,4.43,0,0,0-1.08-2.9L18,1H271.53l12.33,12.48H319l5.11-5.12H333a3,3,0,1,0,3-3.45M299.35,2.38a3,3,0,1,1-3,3,3,3,0,0,1,3-3"/><path class="cls-2" d="M299.35,7a1.71,1.71,0,1,0-1.71-1.71A1.71,1.71,0,0,0,299.35,7"/></g></svg>