<svg xmlns="http://www.w3.org/2000/svg" viewBox="0 0 320 320"><defs><style>.cls-1{fill:#db6a6a;opacity:0;}.cls-2,.cls-4{opacity:0.6;}.cls-3{fill:#1a6771;}.cls-4,.cls-7{fill:#41cdd7;}.cls-5{fill:#021520;}.cls-6{fill:#4df3fc;}</style></defs><g id="_03" data-name="03"><rect class="cls-1" width="320" height="320"/><g class="cls-2"><circle class="cls-3" cx="159.97" cy="160" r="126.55"/></g><path class="cls-4" d="M272.81,160a112.33,112.33,0,0,0-22.62-67.77l-88.86,67.4,7.62,1-.13,1-7.49-.93,75,82.36A112.54,112.54,0,0,0,272.81,160Z"/><circle class="cls-5" cx="159.97" cy="160" r="99.78"/><path class="cls-6" d="M160,60.22A99.78,99.78,0,1,1,60.19,160,99.89,99.89,0,0,1,160,60.22m0-1A100.81,100.81,0,1,0,260.78,160,100.8,100.8,0,0,0,160,59.19Z"/><path class="cls-7" d="M191.54,225.52l-.44-.91A71.71,71.71,0,0,0,231.67,160h1a72.71,72.71,0,0,1-41.14,65.52ZM107.16,210A72.83,72.83,0,0,1,92,134.11l1,.36a71.79,71.79,0,0,0,14.94,74.81Zm119-77.5a71.72,71.72,0,0,0-62.27-44.07l0-1a72.72,72.72,0,0,1,63.15,44.69Z"/></g></svg>