<svg xmlns="http://www.w3.org/2000/svg" width="15" height="11" viewBox="0 0 15 11">
  <defs>
    <style>
      .cls-1 {
        fill: none;
      }

      .cls-2, .cls-3 {
        stroke: none;
      }

      .cls-3 {
        fill: #a0a0a8;
      }
    </style>
  </defs>
  <g id="多边形_26" data-name="多边形 26" class="cls-1" transform="translate(15 11) rotate(180)">
    <path class="cls-2" d="M5.848,2.424a2,2,0,0,1,3.3,0l3.716,5.45A2,2,0,0,1,11.216,11H3.784A2,2,0,0,1,2.132,7.873Z"/>
    <path class="cls-3" d="M 7.500000476837158 2.550272941589355 C 7.164130687713623 2.550272941589355 6.862990379333496 2.709432601928711 6.67378044128418 2.986943244934082 L 2.958050727844238 8.436653137207031 C 2.651680946350098 8.886002540588379 2.815500259399414 9.307083129882812 2.900160789489746 9.467263221740723 C 2.984810829162598 9.627443313598633 3.24043083190918 10.00000286102295 3.784280776977539 10.00000286102295 L 11.21572017669678 10.00000286102295 C 11.75957012176514 10.00000286102295 12.01519012451172 9.627443313598633 12.09984016418457 9.467263221740723 C 12.1845006942749 9.307083129882812 12.34832000732422 8.886002540588379 12.04195022583008 8.436662673950195 L 8.326220512390137 2.986943244934082 C 8.13701057434082 2.709432601928711 7.835870265960693 2.550272941589355 7.500000476837158 2.550272941589355 M 7.500000476837158 1.550272941589355 C 8.127742767333984 1.550272941589355 8.755485534667969 1.84138298034668 9.152450561523438 2.423603057861328 L 12.86818027496338 7.8733229637146 C 13.77337074279785 9.200942993164062 12.82256031036377 11.00000286102295 11.21572017669678 11.00000286102295 L 3.784280776977539 11.00000286102295 C 2.177440643310547 11.00000286102295 1.226630210876465 9.200942993164062 2.131820678710938 7.8733229637146 L 5.847550392150879 2.423603057861328 C 6.244515419006348 1.84138298034668 6.872258186340332 1.550272941589355 7.500000476837158 1.550272941589355 Z"/>
  </g>
</svg>
