<?xml version="1.0" encoding="utf-8"?>
<!-- Generator: Adobe Illustrator 25.4.1, SVG Export Plug-In . SVG Version: 6.00 Build 0)  -->
<svg version="1.1" id="图层_1" xmlns="http://www.w3.org/2000/svg" xmlns:xlink="http://www.w3.org/1999/xlink" x="0px" y="0px"
	 viewBox="0 0 73 71" style="enable-background:new 0 0 73 71;" xml:space="preserve">
<style type="text/css">
	.st0{fill:#08464F;}
	.st1{fill:#1A6771;}
	.st2{fill:#26C6FF;}
</style>
<g id="回退版本_00000088123145910861324290000014458942324569106315_">
	<g id="回退版本">
		<g>
			<path class="st0" d="M40.54,13.35l0.44-2.13c-2.89-0.55-5.84-0.56-8.7-0.05l0.41,2.13C35.27,12.85,37.93,12.86,40.54,13.35z"/>
			<path class="st0" d="M32,13.44l-0.41-2.13c-2.84,0.59-5.58,1.69-8.06,3.27l1.2,1.82C26.97,14.97,29.44,13.97,32,13.44z"/>
			<path class="st0" d="M48.46,16.55l1.22-1.8c-2.52-1.65-5.23-2.77-8.01-3.39l-0.44,2.13C43.74,14.05,46.19,15.06,48.46,16.55z"/>
			<path class="st0" d="M24.14,16.78l-1.19-1.81c-2.36,1.6-4.46,3.65-6.19,6.11l1.8,1.22C20.11,20.07,22.01,18.22,24.14,16.78z"/>
			<path class="st0" d="M57.99,38.93l2.13,0.44c0.55-2.89,0.56-5.84,0.05-8.7l-2.13,0.41C58.49,33.66,58.48,36.32,57.99,38.93z"/>
			<path class="st0" d="M18.16,22.88l-1.8-1.22c-1.65,2.52-2.77,5.23-3.39,8.01l2.13,0.44C15.66,27.6,16.67,25.15,18.16,22.88z"/>
			<path class="st0" d="M54.56,22.53l1.81-1.19c-1.6-2.36-3.65-4.46-6.11-6.19l-1.22,1.8C51.27,18.51,53.12,20.41,54.56,22.53z"/>
			<path class="st0" d="M57.9,30.39l2.13-0.41c-0.59-2.84-1.69-5.58-3.27-8.06l-1.82,1.2C56.37,25.36,57.37,27.83,57.9,30.39z"/>
			<path class="st0" d="M54.39,47.44c-1.56,2.22-3.46,4.07-5.58,5.52L50,54.77c2.36-1.6,4.46-3.65,6.19-6.11L54.39,47.44z"/>
			<path class="st0" d="M32.41,56.38l-0.44,2.13c2.89,0.55,5.84,0.56,8.7,0.05l-0.41-2.13C37.68,56.88,35.02,56.87,32.41,56.38z"/>
			<path class="st0" d="M40.95,56.29l0.41,2.13c2.84-0.59,5.58-1.69,8.06-3.27l-1.2-1.82C45.98,54.77,43.51,55.76,40.95,56.29z"/>
			<path class="st0" d="M54.79,46.85l1.8,1.22c1.65-2.52,2.77-5.23,3.39-8.01l-2.13-0.44C57.29,42.13,56.28,44.58,54.79,46.85z"/>
			<path class="st0" d="M24.49,53.18l-1.22,1.8c2.52,1.65,5.23,2.77,8.01,3.39l0.44-2.13C29.21,55.68,26.76,54.67,24.49,53.18z"/>
			<path class="st0" d="M14.96,30.8l-2.13-0.44c-0.55,2.89-0.56,5.84-0.05,8.7l2.13-0.41C14.46,36.07,14.47,33.41,14.96,30.8z"/>
			<path class="st0" d="M15.05,39.34l-2.13,0.41c0.59,2.84,1.69,5.58,3.27,8.06l1.82-1.2C16.57,44.37,15.58,41.9,15.05,39.34z"/>
			<path class="st0" d="M18.38,47.2l-1.81,1.19c1.6,2.36,3.65,4.46,6.11,6.19l1.22-1.8C21.68,51.23,19.83,49.33,18.38,47.2z"/>
		</g>
		<path class="st1" d="M66.33,14.78c-4.72-7.02-11.5-11.85-19-14.21l-0.67,2.22C38.82,0.31,30.13,0.7,22.35,4.32L21.4,2.2
			c-1.69,0.78-3.34,1.71-4.93,2.78C5.41,12.41-0.2,24.96,0.67,37.39l2.31-0.2c0.39,5.67,2.23,11.3,5.61,16.35
			c0.47,0.7,0.96,1.38,1.48,2.03l-1.85,1.41c5.85,7.48,14.33,12.24,23.58,13.45l0.27-2.32c7.84,1.04,16.08-0.65,23.15-5.4
			c4.21-2.83,7.58-6.45,10.04-10.54l1.97,1.23C74.22,41.82,74.36,26.74,66.33,14.78z M54.75,61.99
			c-14.99,10.06-35.37,6.06-45.44-8.93C-0.75,38.07,3.26,17.69,18.25,7.62s35.37-6.06,45.44,8.93
			C73.75,31.55,69.74,51.93,54.75,61.99z"/>
		<g>
			<path class="st2" d="M16.83,55.16c-1.67-1.6-3.16-3.44-4.43-5.49c-6.77-10.94-5.1-24.75,3.18-33.81l-0.41-0.66
				c-8.63,9.3-10.39,23.57-3.41,34.86c1.35,2.19,2.95,4.12,4.74,5.81L16.83,55.16z"/>
			<g>
				<path class="st2" d="M60.27,20.06c1.28,2.06,2.25,4.23,2.94,6.45h0.77c-0.71-2.35-1.73-4.65-3.08-6.84
					C53.91,8.38,40.36,3.58,28.19,7.15l0.41,0.66C40.4,4.44,53.5,9.12,60.27,20.06z"/>
				<path class="st2" d="M63.19,43.22c-1.94,6.26-6.05,11.87-12.05,15.58c-5.41,3.35-11.53,4.63-17.42,4.07l-0.33,0.71
					c6.13,0.64,12.51-0.67,18.14-4.15c6.23-3.85,10.47-9.7,12.44-16.21H63.19z"/>
			</g>
		</g>
		<path class="st2" d="M25.79,40.43l9.08,9.68c0.34,0.54,0.93,0.87,1.57,0.87h0.04c0.64,0,1.24-0.33,1.58-0.87l9.06-9.68
			c0.69-0.76,0.64-1.93-0.12-2.62c-0.74-0.68-1.89-0.64-2.59,0.09l-6.11,6.52v-23.8c0-1.02-0.83-1.85-1.85-1.85
			c-1.02,0-1.85,0.83-1.85,1.85v23.8l-6.11-6.51c-0.72-0.72-1.9-0.72-2.62,0C25.19,38.59,25.15,39.69,25.79,40.43z"/>
	</g>
</g>
</svg>
