<?xml version="1.0" encoding="utf-8"?>
<!-- Generator: Adobe Illustrator 25.4.1, SVG Export Plug-In . SVG Version: 6.00 Build 0)  -->
<svg version="1.1" id="图层_1" xmlns="http://www.w3.org/2000/svg" xmlns:xlink="http://www.w3.org/1999/xlink" x="0px" y="0px"
	 viewBox="0 0 309 65.5" style="enable-background:new 0 0 309 65.5;" xml:space="preserve">
<style type="text/css">
	.st0{fill-rule:evenodd;clip-rule:evenodd;fill:#0E1D23;}
	.st1{fill:#44C6FF;}
	.st2{fill:#306788;}
	.st3{fill:#052A2F;}
	.st4{fill:#668C8F;}
	.st5{fill:#103E44;}
	.st6{fill:#142F32;}
	.st7{fill:#277B81;}
	.st8{fill-rule:evenodd;clip-rule:evenodd;}
	.st9{fill:#26C6FF;}
	.st10{fill-rule:evenodd;clip-rule:evenodd;fill:#3496C6;}
	.st11{fill-rule:evenodd;clip-rule:evenodd;fill:#26C6FF;}
	.st12{fill:#9FA5A7;}
	.st13{fill:#08464F;}
	.st14{fill:#1A6771;}
	.st15{fill:#2C7CA3;}
	.st16{fill-rule:evenodd;clip-rule:evenodd;fill:#0C181D;}
	.st17{fill:#2F84AD;}
	.st18{fill:#FFFFFF;}
	.st19{fill-rule:evenodd;clip-rule:evenodd;fill:#C1EFFF;}
</style>
<g>
	<polygon class="st0" points="309,57.9 309,0 0,0 0,58.3 7.4,65.5 301.4,65.5 	"/>
	<g>
		<polygon class="st1" points="306.8,51.5 307.5,51.5 307.5,58.6 302,64.1 295,64.1 295,63.3 292,63.3 292,65.5 294.2,65.5 
			295,65.5 303.1,65.5 303.1,65.1 308.6,59.6 309,59.6 309,51.5 309,50.7 309,48.5 306.8,48.5 		"/>
		<polygon class="st1" points="14,64.1 7,64.1 1.5,58.6 1.5,51.5 2.2,51.5 2.2,48.5 0,48.5 0,50.7 0,51.5 0,59.6 0.4,59.6 5.9,65.1 
			5.9,65.5 14,65.5 14.8,65.5 17,65.5 17,63.3 14,63.3 		"/>
		<rect x="0" y="14.4" class="st1" width="1" height="23.1"/>
		<rect x="0" y="7.2" class="st1" width="1" height="2.9"/>
		<rect x="0" y="0" class="st1" width="1" height="2.9"/>
		<rect x="308" y="14.4" class="st1" width="1" height="23.1"/>
		<rect x="308" y="7.2" class="st1" width="1" height="2.9"/>
		<rect x="308" y="0" class="st1" width="1" height="2.9"/>
		<rect x="217.9" y="64.5" class="st1" width="3.7" height="1"/>
		<rect x="246.1" y="64.5" class="st1" width="3.7" height="1"/>
		<rect x="273.3" y="64.5" class="st1" width="3.7" height="1"/>
		<rect x="134.9" y="64.5" class="st1" width="3.7" height="1"/>
		<rect x="162.1" y="64.5" class="st1" width="3.7" height="1"/>
		<rect x="190.3" y="64.5" class="st1" width="3.7" height="1"/>
		<path class="st1" d="M284.5,60c-0.9,0-1.7,0.6-1.9,1.5H69.8l-4.8,3H25.6v-0.9h-2.3v1.9h0v0.1h41.9l4.8-3h212.4
			c0.2,0.9,1,1.5,1.9,1.5c1.1,0,2-0.9,2-2S285.6,60,284.5,60z M284.5,63c-0.6,0-1-0.4-1-1s0.4-1,1-1s1,0.4,1,1S285.1,63,284.5,63z"
			/>
	</g>
</g>
</svg>
