<?xml version="1.0" encoding="utf-8"?>
<!-- Generator: Adobe Illustrator 25.4.1, SVG Export Plug-In . SVG Version: 6.00 Build 0)  -->
<svg version="1.1" id="图层_1" xmlns="http://www.w3.org/2000/svg" xmlns:xlink="http://www.w3.org/1999/xlink" x="0px" y="0px"
	 viewBox="0 0 309 62.7" style="enable-background:new 0 0 309 62.7;" xml:space="preserve">
<style type="text/css">
	.st0{fill-rule:evenodd;clip-rule:evenodd;fill:#0E1D23;}
	.st1{fill:#44C6FF;}
	.st2{fill:#306788;}
	.st3{fill:#052A2F;}
	.st4{fill:#668C8F;}
	.st5{fill:#103E44;}
	.st6{fill:#142F32;}
	.st7{fill:#277B81;}
	.st8{fill-rule:evenodd;clip-rule:evenodd;}
	.st9{fill:#26C6FF;}
	.st10{fill-rule:evenodd;clip-rule:evenodd;fill:#3496C6;}
	.st11{fill-rule:evenodd;clip-rule:evenodd;fill:#26C6FF;}
	.st12{fill:#9FA5A7;}
	.st13{fill:#08464F;}
	.st14{fill:#1A6771;}
	.st15{fill:#2C7CA3;}
	.st16{fill-rule:evenodd;clip-rule:evenodd;fill:#0C181D;}
	.st17{fill:#2F84AD;}
	.st18{fill:#FFFFFF;}
	.st19{fill-rule:evenodd;clip-rule:evenodd;fill:#C1EFFF;}
</style>
<g>
	<polygon class="st0" points="301.7,0 7,0 0,7 0,62.7 309,62.7 309,7.3 	"/>
	<g>
		<polygon class="st1" points="308.6,5.9 303.1,0.4 303.1,0 295,0 294.2,0 292,0 292,2.2 295,2.2 295,1.5 302,1.5 307.5,7 
			307.5,14.1 306.8,14.1 306.8,17 309,17 309,14.8 309,14.1 309,5.9 		"/>
		<polygon class="st1" points="14,0 5.9,0 5.9,0.4 0.4,5.9 0,5.9 0,14.1 0,14.8 0,17 2.2,17 2.2,14.1 1.5,14.1 1.5,7 7,1.5 14,1.5 
			14,2.2 17,2.2 17,0 14.8,0 		"/>
		<rect x="0" y="59.8" class="st1" width="1" height="2.9"/>
		<rect x="0" y="52.6" class="st1" width="1" height="2.9"/>
		<rect x="0" y="46" class="st1" width="1" height="2.9"/>
		<rect x="0" y="27.2" class="st1" width="1" height="14.4"/>
		<rect x="308" y="59.8" class="st1" width="1" height="2.9"/>
		<rect x="308" y="52.6" class="st1" width="1" height="2.9"/>
		<rect x="308" y="46" class="st1" width="1" height="2.9"/>
		<rect x="308" y="27.2" class="st1" width="1" height="14.4"/>
		<rect x="287" y="0" class="st1" width="1" height="2"/>
		<rect x="282.9" y="0" class="st1" width="1" height="2"/>
		<rect x="277.8" y="0" class="st1" width="1" height="2"/>
		<rect x="273.7" y="0" class="st1" width="1" height="2"/>
		<rect x="269.6" y="0" class="st1" width="1" height="2"/>
		<rect x="264.5" y="0" class="st1" width="1" height="2"/>
		<rect x="260.4" y="0" class="st1" width="1" height="2"/>
		<rect x="255.2" y="0" class="st1" width="1" height="2"/>
		<rect x="251.1" y="0" class="st1" width="1" height="2"/>
		<rect x="247" y="0" class="st1" width="1" height="2"/>
		<rect x="241.9" y="0" class="st1" width="1" height="2"/>
		<rect x="237.8" y="0" class="st1" width="1" height="2"/>
		<rect x="233.7" y="0" class="st1" width="1" height="2"/>
		<rect x="228.6" y="0" class="st1" width="1" height="2"/>
		<rect x="224.5" y="0" class="st1" width="1" height="2"/>
		<rect x="219.4" y="0" class="st1" width="1" height="2"/>
		<rect x="215.3" y="0" class="st1" width="1" height="2"/>
		<rect x="211.2" y="0" class="st1" width="1" height="2"/>
		<rect x="206.1" y="0" class="st1" width="1" height="2"/>
		<rect x="202" y="0" class="st1" width="1" height="2"/>
		<path class="st1" d="M243.5,4.5c-0.9,0-1.7,0.6-1.9,1.5h-45.2l-7-6h-167v0.1h0v1.9h2.3V1H189l7,6h45.5c0.2,0.9,1,1.5,1.9,1.5
			c1.1,0,2-0.9,2-2S244.6,4.5,243.5,4.5z M243.5,7.5c-0.6,0-1-0.4-1-1s0.4-1,1-1s1,0.4,1,1S244.1,7.5,243.5,7.5z"/>
	</g>
</g>
</svg>
