<?xml version="1.0" encoding="utf-8"?>
<!-- Generator: Adobe Illustrator 25.4.1, SVG Export Plug-In . SVG Version: 6.00 Build 0)  -->
<svg version="1.1" id="图层_1" xmlns="http://www.w3.org/2000/svg" xmlns:xlink="http://www.w3.org/1999/xlink" x="0px" y="0px"
	 viewBox="0 0 22 22" style="enable-background:new 0 0 22 22;" xml:space="preserve">
<style type="text/css">
	.st0{fill:#2C7CA3;}
</style>
<g id="删除_00000038373076750339209470000002459666224788305326_">
	<path id="删除" class="st0" d="M17.65,4.35L17.65,4.35c-0.46-0.46-1.22-0.46-1.68,0L11,9.32L6.03,4.35
		c-0.46-0.46-1.22-0.46-1.68,0l0,0c-0.46,0.46-0.46,1.22,0,1.68L9.32,11l-4.97,4.97c-0.46,0.46-0.46,1.22,0,1.68l0,0
		c0.46,0.46,1.22,0.46,1.68,0L11,12.68l4.97,4.97c0.46,0.46,1.22,0.46,1.68,0l0,0c0.46-0.46,0.46-1.22,0-1.68L12.68,11l4.97-4.97
		C18.12,5.56,18.12,4.81,17.65,4.35z"/>
</g>
</svg>
