<svg id="图层_3" data-name="图层 3" xmlns="http://www.w3.org/2000/svg" viewBox="0 0 339 33.02"><defs><style>.cls-1{fill:#0e1d23;}.cls-2{fill:#44c6ff;}</style></defs><title>画板 1 副本</title><polygon class="cls-1" points="0 0 0 5.93 28.07 32.52 275.5 32.53 286.58 21.95 339 21.92 339 0 0 0"/><path class="cls-2" d="M9,10.49a4.18,4.18,0,1,0,4.2,4.18A4.19,4.19,0,0,0,9,10.49"/><path class="cls-2" d="M335.15,18.26a3.85,3.85,0,0,0-3.79,3.16H286L274.82,32H28.24l-12-11.42A9.11,9.11,0,0,0,9.17,5.73,9.13,9.13,0,1,0,15.6,21.34L27.83,33H275.22l11.14-10.6h45a3.85,3.85,0,1,0,3.83-4.16M9.17,23a8.13,8.13,0,1,1,8.16-8.13A8.16,8.16,0,0,1,9.17,23m326,1.95A2.84,2.84,0,1,1,338,22.1a2.84,2.84,0,0,1-2.85,2.83"/><polygon class="cls-2" points="285.71 31.97 286.42 32.68 293.22 25.91 292.51 25.2 285.71 31.97"/><polygon class="cls-2" points="295.76 31.97 296.47 32.68 303.27 25.91 302.56 25.2 295.76 31.97"/><polygon class="cls-2" points="306.01 31.97 306.72 32.68 313.52 25.91 312.81 25.2 306.01 31.97"/><polygon class="cls-2" points="316.03 31.97 316.74 32.68 323.54 25.91 322.83 25.2 316.03 31.97"/></svg>