<svg xmlns="http://www.w3.org/2000/svg" viewBox="0 0 341 334">
  <defs>
    <style>.cls-1{fill:#306788;}.cls-2{fill:#052a2f;}.cls-3{fill:#668c8f;}.cls-4{fill:#103e44;}.cls-5{fill:#142f32;}.cls-6{fill:#277b81;}.cls-7,.cls-9{fill:#26c6ff;}.cls-8{fill:#3496c6;}.cls-8,.cls-9{fill-rule:evenodd;}</style>
  </defs>
  <g id="首页数据背景">
    <g id="首页数据背景-2" data-name="首页数据背景">
      <path class="cls-1" d="M139.2,80.41a104,104,0,0,0-31.69,21.21l12.57,12.57A86.55,86.55,0,0,1,146,96.84Z"/>
      <path class="cls-1" d="M105.72,103.4a104.43,104.43,0,0,0-21.2,31.69l16.42,6.81A86.33,86.33,0,0,1,118.3,116Z"/>
      <path class="cls-1" d="M178.93,72a103.5,103.5,0,0,0-37.4,7.41l6.8,16.43a85.93,85.93,0,0,1,30.6-6.06Z"/>
      <path class="cls-1" d="M83.55,137.42a103.8,103.8,0,0,0-7.41,37.4H93.92A86.15,86.15,0,0,1,100,144.23Z"/>
      <path class="cls-1" d="M275.86,135.09a104.28,104.28,0,0,0-21.21-31.69L242.08,116a86.33,86.33,0,0,1,17.36,25.92Z"/>
      <path class="cls-1" d="M76.14,177.35a103.8,103.8,0,0,0,7.41,37.4L100,207.94a86.15,86.15,0,0,1-6.07-30.59Z"/>
      <path class="cls-1" d="M218.85,79.45A103.5,103.5,0,0,0,181.45,72V89.82A85.83,85.83,0,0,1,212,95.88Z"/>
      <path class="cls-1" d="M252.87,101.62a104,104,0,0,0-31.69-21.21l-6.8,16.43a86.55,86.55,0,0,1,25.92,17.35Z"/>
      <path class="cls-1" d="M260.39,207.94l16.44,6.81a103.8,103.8,0,0,0,7.41-37.4H266.46A86.15,86.15,0,0,1,260.39,207.94Z"/>
      <path class="cls-1" d="M221.18,271.76a104,104,0,0,0,31.69-21.21L240.3,238a86.55,86.55,0,0,1-25.92,17.35Z"/>
      <path class="cls-1" d="M254.65,248.77a104.28,104.28,0,0,0,21.21-31.69l-16.42-6.81a86.33,86.33,0,0,1-17.36,25.92Z"/>
      <path class="cls-1" d="M284.24,174.82a103.8,103.8,0,0,0-7.41-37.4l-16.44,6.81a86.15,86.15,0,0,1,6.07,30.59Z"/>
      <path class="cls-1" d="M181.45,280.13a103.5,103.5,0,0,0,37.4-7.41L212,256.29a85.83,85.83,0,0,1-30.59,6.06Z"/>
      <path class="cls-1" d="M84.52,217.08a104.43,104.43,0,0,0,21.2,31.69l12.58-12.58a86.33,86.33,0,0,1-17.36-25.92Z"/>
      <path class="cls-1" d="M107.51,250.55a104,104,0,0,0,31.69,21.21l6.8-16.43A86.55,86.55,0,0,1,120.08,238Z"/>
      <path class="cls-1" d="M141.53,272.72a103.5,103.5,0,0,0,37.4,7.41V262.35a85.93,85.93,0,0,1-30.6-6.06Z"/>
      <path class="cls-2" d="M192.54,110.77l1.33-6.46a73,73,0,0,0-26.41-.15l1.25,6.47A66.74,66.74,0,0,1,192.54,110.77Z"/>
      <path class="cls-2" d="M166.61,111l-1.24-6.47a73.3,73.3,0,0,0-24.48,9.92l3.63,5.51A66.83,66.83,0,0,1,166.61,111Z"/>
      <path class="cls-2" d="M216.58,120.49l3.7-5.46A72.71,72.71,0,0,0,196,104.75l-1.33,6.45A66,66,0,0,1,216.58,120.49Z"/>
      <path class="cls-2" d="M142.74,121.17l-3.63-5.51a72.91,72.91,0,0,0-18.78,18.56l5.46,3.7A66.08,66.08,0,0,1,142.74,121.17Z"/>
      <path class="cls-2" d="M245.5,188.43l6.47,1.34a73.27,73.27,0,0,0,.15-26.41l-6.48,1.24A66.28,66.28,0,0,1,245.5,188.43Z"/>
      <path class="cls-2" d="M124.59,139.69l-5.46-3.7a72.71,72.71,0,0,0-10.28,24.32l6.45,1.33A66.42,66.42,0,0,1,124.59,139.69Z"/>
      <path class="cls-2" d="M235.11,138.63l5.5-3.62a72.76,72.76,0,0,0-18.56-18.78l-3.7,5.45A66.6,66.6,0,0,1,235.11,138.63Z"/>
      <path class="cls-2" d="M245.24,162.5l6.48-1.24a73,73,0,0,0-9.93-24.47l-5.51,3.63A66.56,66.56,0,0,1,245.24,162.5Z"/>
      <path class="cls-2" d="M234.59,214.25a66.08,66.08,0,0,1-17,16.75l3.63,5.51A72.91,72.91,0,0,0,240.05,218Z"/>
      <path class="cls-2" d="M167.84,241.4l-1.33,6.46a73,73,0,0,0,26.41.15l-1.25-6.47A66.74,66.74,0,0,1,167.84,241.4Z"/>
      <path class="cls-2" d="M193.77,241.14l1.24,6.47a73.3,73.3,0,0,0,24.48-9.92l-3.63-5.51A66.83,66.83,0,0,1,193.77,241.14Z"/>
      <path class="cls-2" d="M235.79,212.48l5.46,3.7a72.71,72.71,0,0,0,10.28-24.32l-6.45-1.33A66.42,66.42,0,0,1,235.79,212.48Z"/>
      <path class="cls-2" d="M143.8,231.68l-3.7,5.46a72.71,72.71,0,0,0,24.32,10.28l1.33-6.45A66,66,0,0,1,143.8,231.68Z"/>
      <path class="cls-2" d="M114.88,163.74l-6.47-1.34a73,73,0,0,0-.15,26.41l6.48-1.24A66.28,66.28,0,0,1,114.88,163.74Z"/>
      <path class="cls-2" d="M115.14,189.67l-6.48,1.24a73,73,0,0,0,9.93,24.47l5.51-3.63A66.56,66.56,0,0,1,115.14,189.67Z"/>
      <path class="cls-2" d="M125.27,213.54l-5.5,3.62a72.76,72.76,0,0,0,18.56,18.78l3.7-5.45A66.44,66.44,0,0,1,125.27,213.54Z"/>
      <path class="cls-3" d="M126,232.45a78.19,78.19,0,0,1-3.48-109.13l-1.12-1.83a80.17,80.17,0,0,0,3.7,112.93Z"/>
      <path class="cls-3" d="M246.66,135a77.82,77.82,0,0,1,8.17,17.91H257a80.19,80.19,0,0,0-99.39-53.75l1.13,1.82A78.29,78.29,0,0,1,246.66,135Z"/>
      <path class="cls-3" d="M254.76,199.29a77.92,77.92,0,0,1-81.85,54.57l-.9,2a80,80,0,0,0,84.91-56.55Z"/>
      <path class="cls-4" d="M111.14,89.17A111,111,0,0,1,265.39,105l2.78-1.24A113.88,113.88,0,0,0,108.54,87.52Z"/>
      <path class="cls-4" d="M225.44,277.44a110.75,110.75,0,0,1-26.76,8.1l-.4,3a113.89,113.89,0,0,0,94.51-129.68L290,160.12A111.18,111.18,0,0,1,225.44,277.44Z"/>
      <path class="cls-4" d="M133.39,276.64A110.7,110.7,0,0,1,72.1,151.09l-2.6-1.64A113.58,113.58,0,0,0,133,279.68Z"/>
      <path class="cls-5" d="M286.37,235a121.7,121.7,0,0,1-126,60.91l-2.08,11.59A130.84,130.84,0,0,0,180,309.3a133.78,133.78,0,0,0,116.72-68.77Z"/>
      <path class="cls-5" d="M296.7,210.28q-.9,3.08-1.95,6.06l11,4c.78-2.24,1.52-4.51,2.2-6.8a132.4,132.4,0,0,0-.37-76.07l-11.17,3.54A120.48,120.48,0,0,1,296.7,210.28Z"/>
      <path class="cls-5" d="M101.68,268.73A121.36,121.36,0,0,1,65.34,136.82l-11.09-4a135.48,135.48,0,0,0-5.67,23.26A132.28,132.28,0,0,0,73,255.05,133.78,133.78,0,0,0,94.2,277.82Z"/>
      <path class="cls-5" d="M74,117.19A120.55,120.55,0,0,1,137.44,62.5a122.91,122.91,0,0,1,20.88-5.83l-2-11.59A135.27,135.27,0,0,0,133.3,51.5a132.2,132.2,0,0,0-69.65,60.14Z"/>
      <rect class="cls-6" x="235.26" y="273.01" width="31.24" height="16.66" transform="translate(616.01 375.01) rotate(146.11)"/>
      <rect class="cls-6" x="244.41" y="65.67" width="26.73" height="15.27" transform="translate(96.2 -140.51) rotate(37.05)"/>
      <rect class="cls-6" x="113.17" y="50.51" width="28.22" height="16.44" transform="translate(-12.89 57.5) rotate(-24.27)"/>
      <rect class="cls-6" x="57.28" y="231.11" width="24.48" height="15.91" transform="translate(-103.87 417.73) rotate(-119.64)"/>
      <path class="cls-4" d="M311.82,87.72A157.78,157.78,0,0,0,228,25l-3,9.81a148.35,148.35,0,0,0-107.28,6.76l-4.18-9.36A158.61,158.61,0,0,0,22.09,187.49l10.21-.88a147.4,147.4,0,0,0,24.77,72.13q3.12,4.65,6.52,9l-8.15,6.21a157.84,157.84,0,0,0,104.07,59.34l1.2-10.24A148,148,0,0,0,307.13,252.7l8.7,5.43A158.74,158.74,0,0,0,311.82,87.72ZM260.72,296c-66.14,44.41-156.08,26.72-200.48-39.42S33.51,100.54,99.66,56.13,255.74,29.41,300.14,95.55,326.86,251.64,260.72,296Z"/>
      <g id="椭圆_5_拷贝_5" data-name="椭圆 5 拷贝 5"><circle cx="180.17" cy="175.73" r="56.79" transform="translate(-23.61 28.03) rotate(-8.35)"/>
        <path class="cls-7" d="M180.17,233.52A57.79,57.79,0,1,1,238,175.73,57.85,57.85,0,0,1,180.17,233.52Zm0-113.57A55.79,55.79,0,1,0,236,175.73,55.84,55.84,0,0,0,180.17,120Z"/>
      </g>
      <g id="椭圆_5_拷贝_5-2" data-name="椭圆 5 拷贝 5">
        <circle cx="180.17" cy="175.73" r="48.58" transform="translate(-32.87 41.72) rotate(-12.11)"/>
        <path class="cls-7" d="M180.17,225.31a49.58,49.58,0,1,1,49.58-49.58A49.63,49.63,0,0,1,180.17,225.31Zm0-97.15a47.58,47.58,0,1,0,47.58,47.57A47.63,47.63,0,0,0,180.17,128.16Z"/>
      </g>
      <g id="矩形_27_拷贝" data-name="矩形 27 拷贝">
        <rect x="147.17" y="210.73" width="66" height="24" rx="11"/>
        <path class="cls-7" d="M202.17,211.73a10,10,0,0,1,10,10v2a10,10,0,0,1-10,10h-44a10,10,0,0,1-10-10v-2a10,10,0,0,1,10-10h44m0-2h-44a12,12,0,0,0-12,12v2a12,12,0,0,0,12,12h44a12,12,0,0,0,12-12v-2a12,12,0,0,0-12-12Z"/>
      </g>
      <g id="椭圆_8_拷贝_5" data-name="椭圆 8 拷贝 5">
        <path class="cls-8" d="M116.67,263.34a5.9,5.9,0,1,0,5.89,5.9A5.9,5.9,0,0,0,116.67,263.34Z"/>
      </g>
      <g id="椭圆_8_拷贝_5-2" data-name="椭圆 8 拷贝 5">
      <path class="cls-9" d="M116.67,266.4a2.84,2.84,0,1,0,2.83,2.84A2.84,2.84,0,0,0,116.67,266.4Z"/>
      </g>
      <polygon class="cls-7" points="90.56 295.9 0.01 295.9 0.01 293.9 89.76 293.9 115.69 269.17 117.07 270.62 90.56 295.9"/>
      <g id="椭圆_8_拷贝_5-3" data-name="椭圆 8 拷贝 5">
        <path class="cls-8" d="M210.67,278.34a5.9,5.9,0,1,0,5.89,5.9A5.9,5.9,0,0,0,210.67,278.34Z"/>
      </g>
      <g id="椭圆_8_拷贝_5-4" data-name="椭圆 8 拷贝 5">
        <path class="cls-9" d="M210.67,281.4a2.84,2.84,0,1,0,2.83,2.84A2.84,2.84,0,0,0,210.67,281.4Z"/>
      </g>
      <polygon class="cls-7" points="341 325.22 236.36 325.22 209.83 284.78 211.5 283.69 237.44 323.22 341 323.22 341 325.22"/>
        <g id="椭圆_8_拷贝_5-5" data-name="椭圆 8 拷贝 5">
      <path class="cls-8" d="M210.67,96.34a5.9,5.9,0,1,0,5.89,5.89A5.9,5.9,0,0,0,210.67,96.34Z"/>
      </g>
      <g id="椭圆_8_拷贝_5-6" data-name="椭圆 8 拷贝 5">
        <path class="cls-9" d="M210.67,99.4a2.84,2.84,0,1,0,2.83,2.83A2.84,2.84,0,0,0,210.67,99.4Z"/>
      </g>
      <polygon class="cls-7" points="211.29 103.02 210.04 101.45 232.42 83.74 341 83.74 341 85.74 233.12 85.74 211.29 103.02"/>
      <g id="椭圆_8_拷贝_5-7" data-name="椭圆 8 拷贝 5">
        <path class="cls-8" d="M149.67,121.34a5.9,5.9,0,1,0,5.89,5.89A5.9,5.9,0,0,0,149.67,121.34Z"/>
      </g>
      <g id="椭圆_8_拷贝_5-8" data-name="椭圆 8 拷贝 5">
        <path class="cls-9" d="M149.67,124.4a2.84,2.84,0,1,0,2.83,2.83A2.84,2.84,0,0,0,149.67,124.4Z"/>
      </g>
      <polygon class="cls-7" points="148.96 128.53 123.27 102.85 23.17 102.85 23.17 100.85 124.1 100.85 150.37 127.12 148.96 128.53"/>
    </g>
  </g>
</svg>