<svg xmlns="http://www.w3.org/2000/svg" viewBox="0 0 320 320"><defs><style>.cls-1{fill:#db6a6a;opacity:0;}.cls-2{fill:#1a6771;}</style></defs><g id="_05" data-name="05"><rect class="cls-1" width="320" height="320"/><path class="cls-2" d="M160,80.71h-2l0,1c.66,0,1.32,0,2,0v-1Zm-10,.62-.37,0h-.06l-.56.08h-.31l-.68.1.15,1c.65-.1,1.3-.19,2-.27l-.13-1Zm-9.81,1.87H140c-.58.15-1.17.31-1.75.48l.27,1,1.91-.52-.25-1Zm-9.5,3.09-1.12.46H129l-.13,0,.39.92c.6-.25,1.21-.51,1.83-.75l-.37-.93Zm-9,4.28q-.87.48-1.74,1l.51.86c.57-.33,1.14-.66,1.72-1l-.49-.87ZM113.22,96l-.09.06H113c-.48.36-1,.71-1.42,1.08l.61.79,1.58-1.19-.59-.8Zm-7.68,6.39-1,.92h0v0h0v0h-.09v0h0l0,0h0l-.31.31.71.71c.46-.47.94-.92,1.41-1.38l-.68-.72Zm-6.82,7.3c-.43.52-.84,1-1.26,1.56l.79.62c.41-.52.82-1,1.24-1.54l-.77-.64Zm-5.86,8.1c-.25.4-.51.81-.75,1.22h0v0h0v0h0v0h0v0h0v0h0v0h0l0,0h0c0,.1-.11.19-.16.28l.86.52c.33-.57.68-1.13,1-1.69l-.85-.53Zm-4.79,8.77c-.17.37-.34.73-.5,1.1h0v0h0v0h0v0h0v0h0v0h0v0h0v0h0l0,0h0v0h0l-.2.45.92.4q.39-.9.81-1.8l-.91-.42Zm-3.64,9.31,0,.07h0v0h0v0h0v0h0v0h0v0h0l-.51,1.67,1,.28c.19-.63.38-1.26.58-1.89l-.95-.3ZM82,145.51c0,.14-.06.28-.08.42h0v0h0v0h0v0h0v0h0v0h0v0h0v0h0v0h0v0h0v0h0v0h0v0h0v0h0v0h0v0h0v0h0v0h0v0h0v0h0v0h0v0h0v0h0v0h0v0h0v0h0v0h0v0h0v0h0v0h0v0h0v0h0v0h0v0h0v0h0v0h0c0,.15,0,.3-.07.45l1,.16c.1-.66.21-1.3.33-1.95l-1-.18Zm-1.2,9.92c0,.31,0,.62,0,.94h0v0l0,1,1,0,.09-2-1-.06Zm1.06,9.93-1,.07c0,.55.08,1.09.13,1.64h0v0h0v0h0v0h0v0h0a1.49,1.49,0,0,0,0,.21l1-.09c-.06-.66-.11-1.31-.15-2Zm1.28,9.78-1,.19,0,.16h0v0h0v0h0v0h0v0h0v0h0v0h0v0h0c0,.24.09.47.14.71h0v0h0v0h0v0h0v0h0v0h0v0h0v0h0v0h0c0,.19.08.39.13.58l1-.21c-.14-.65-.28-1.29-.4-1.94Zm2.51,9.55-1,.31c.21.63.42,1.26.65,1.89l.94-.34c-.22-.62-.44-1.24-.64-1.86Zm3.69,9.14-.9.44c.16.34.33.68.5,1h0l0,0h0v0h0v0h0v0h0v0h0v0h0v0h0v0h0l0,0h0l.24.48.89-.46c-.3-.58-.59-1.17-.88-1.77Zm4.82,8.61-.84.54c.19.28.37.56.55.84h0l0,0h0l0,0h0v0h0v0h0l0,0h0l0,0h0v0h0l0,0h0l0,0h0l0,0h0l.38.57.83-.56c-.37-.55-.74-1.1-1.1-1.65Zm5.87,7.94-.76.64.68.81h0v0h0l0,0h0v0h0v0h.05l0,0h0l0,0h0l0,0h0l0,0h0l.35.39.75-.66c-.44-.49-.87-1-1.29-1.49Zm6.81,7.13-.67.74.76.69h0l0,0h0l0,0h0l0,0h0v0h0l0,0h0l0,0h0l0,0h0l.11.11h0l0,0h0l0,0h0l.35.31.66-.75-1.47-1.33Zm7.66,6.23-.58.82.68.48h0l0,0h.14l0,0h0l0,0h0l0,0h0l.61.42h0l0,0h.08l.56-.83c-.55-.37-1.09-.74-1.62-1.13Zm8.37,5.23-.47.88,1.18.62h0l0,0h.31l.25.12.45-.89-1.75-.91Zm9,4.12-.36.93,1.87.7.34-.95-1.85-.68Zm9.41,2.95-.24,1,.82.2h.35l.78.18.21-1-1.92-.45Zm9.71,1.74-.11,1,.24,0h.4l.47,0h.29l.59.06.09-1c-.66-.06-1.32-.12-2-.2Zm11.83.46c-.65,0-1.31,0-2,0v1h1l.72,0h.25l0-1Zm9.82-1-2,.29.14,1,.27,0h.56l1.14-.17-.16-1Zm9.62-2.2c-.63.19-1.26.37-1.9.54l.26,1,1.85-.52h.08l-.29-1Zm9.27-3.39-1.82.77.38.93,1.47-.62.37-.17-.4-.91Zm8.76-4.54q-.85.51-1.71,1l.5.87.4-.23h.17l0,0h.49l0,0h0l.59-.36-.51-.85Zm8.12-5.61c-.52.41-1,.81-1.57,1.2l.6.8.65-.49h.14l0,0h0l0,0h0l0,0h0l.73-.56-.62-.79Zm7.35-6.58c-.46.47-.93.93-1.4,1.39l.69.72,0,0h0l0,0h0l0,0h0l0,0h0l0,0h0l0,0h0l0,0h0v0h0l0,0h0l0,0h0l0,0h0l0,0h0c.06,0,.11-.11.17-.17h0l0,0h.07v0h.13v0h0l0,0h0l0,0h0l.63-.64-.71-.7Zm6.47-7.45c-.4.53-.8,1-1.21,1.56l.77.62c.42-.52.83-1,1.24-1.57l-.8-.61Zm5.49-8.2c-.33.57-.67,1.14-1,1.7l.85.52c.21-.33.41-.67.61-1h0v0h0v0h0v0h0v0h0v0h0v0h0v0h0l0,0h0l.27-.45-.87-.51Zm4.42-8.82c-.26.6-.52,1.21-.8,1.81l.91.41.14-.3h0v0h0v0h0v0h0v0h0v0h0l.6-1.37-.92-.39Zm3.26-9.31c-.18.63-.37,1.26-.56,1.89l1,.29c.19-.63.38-1.27.56-1.92l-1-.26Zm2-9.66c-.09.66-.2,1.31-.31,1.95l1,.17c.08-.4.14-.82.21-1.23h0v0h0v0h0v0c0-.22.07-.43.1-.65l-1-.15Zm.83-9.83c0,.66,0,1.32-.07,2l1,.05c0-.66,0-1.33.07-2l-1,0Zm.59-10-1,.1c.07.65.13,1.31.18,2l1-.08v0h0v0h0v0h0v0h0v0h0v0h0v0h0c-.05-.59-.1-1.17-.16-1.74Zm-1.66-9.86-1,.23c.15.64.29,1.28.42,1.93l1-.21h0v0h0v0h0v0h0v0h0v0h0v0h0v0h0v0h0v0h0v0h0v0h0v0h0v0h0v0h0v0h0c-.1-.49-.21-1-.33-1.48Zm-2.89-9.57-.93.35q.34.93.66,1.86l.95-.32c-.09-.25-.17-.5-.26-.74h0v-.05h0c-.13-.36-.26-.72-.4-1.09Zm-4.07-9.12-.89.46c.31.59.6,1.17.9,1.76l.89-.44-.69-1.38h0v0h0v0h0v0h0v0h0c-.05-.1-.1-.19-.14-.28Zm-5.2-8.54-.82.58c.38.54.75,1.08,1.11,1.63l.83-.55c-.3-.46-.6-.91-.91-1.36h0v0h0l-.18-.26Zm-6.23-7.81-.74.67c.44.48.88,1,1.31,1.48l.76-.65-.5-.58h0v0h0v0h0l0,0h0c-.23-.27-.47-.53-.71-.79Zm-7.15-7-.65.76,1.48,1.3.67-.74-1.23-1.09h0l0,0h-.09l0,0h0l0,0h0l-.12-.1Zm-8-6-.56.84c.55.36,1.1.73,1.64,1.11l.57-.82c-.55-.39-1.1-.76-1.65-1.13Zm-8.67-5-.44.9c.59.29,1.18.59,1.76.9l.46-.89-.63-.33h-.51l-.64-.32ZM185.78,85l-.33,1q.93.31,1.86.66l.35-.94-1.2-.43h-.17l-.51-.18Zm-9.64-2.64-.2,1,1.93.43.22-1-.57-.14h-.12l-.85-.19h-.29l-.12,0ZM166.25,81l-.08,1c.66,0,1.31.11,2,.18l.11-1-.34,0h-.39L166.25,81Z"/></g></svg>