<?xml version="1.0" encoding="utf-8"?>
<!-- Generator: Adobe Illustrator 25.4.1, SVG Export Plug-In . SVG Version: 6.00 Build 0)  -->
<svg version="1.1" id="图层_1" xmlns="http://www.w3.org/2000/svg" xmlns:xlink="http://www.w3.org/1999/xlink" x="0px" y="0px"
	 viewBox="0 0 80 80" style="enable-background:new 0 0 80 80;" xml:space="preserve">
<style type="text/css">
	.st0{fill-rule:evenodd;clip-rule:evenodd;fill:#0C181D;}
	.st1{fill:#26C6FF;}
	.st2{fill-rule:evenodd;clip-rule:evenodd;fill:#26C6FF;}
</style>
<g id="添加_00000155117480752977977580000002749376324127105469_">
	<g id="添加">
		<g id="矩形_18_拷贝_25_00000054973128454448782230000018143971981862304650_">
			<g>
				<path class="st0" d="M12,79.5C5.66,79.5,0.5,74.34,0.5,68V12C0.5,5.66,5.66,0.5,12,0.5h56c6.34,0,11.5,5.16,11.5,11.5v56
					c0,6.34-5.16,11.5-11.5,11.5H12z"/>
			</g>
			<g>
				<path class="st1" d="M68,1c6.07,0,11,4.93,11,11v56c0,6.07-4.93,11-11,11H12C5.93,79,1,74.07,1,68V12C1,5.93,5.93,1,12,1H68
					 M68,0H12C5.37,0,0,5.37,0,12v56c0,6.63,5.37,12,12,12h56c6.63,0,12-5.37,12-12V12C80,5.37,74.63,0,68,0L68,0z"/>
			</g>
		</g>
		<polygon class="st2" points="51,39 41,39 41,29 39,29 39,39 29,39 29,41 39,41 39,51 41,51 41,41 51,41 		"/>
	</g>
</g>
</svg>
