<?xml version="1.0" encoding="utf-8"?>
<!-- Generator: Adobe Illustrator 25.4.1, SVG Export Plug-In . SVG Version: 6.00 Build 0)  -->
<svg version="1.1" id="图层_1" xmlns="http://www.w3.org/2000/svg" xmlns:xlink="http://www.w3.org/1999/xlink" x="0px" y="0px"
	 viewBox="0 0 28 28" style="enable-background:new 0 0 28 28;" xml:space="preserve">
<style type="text/css">
	.st0{fill:#44C6FF;}
</style>
<g id="设置_00000017516468767362306340000015784966965408390288_">
	<g id="设置">
		<g>
			<path class="st0" d="M13.41,27.66L2.46,21.34c-0.37-0.21-0.59-0.6-0.59-1.02V7.68c0-0.42,0.23-0.81,0.59-1.02l10.95-6.32
				c0.37-0.21,0.82-0.21,1.18,0l10.95,6.32c0.37,0.21,0.59,0.6,0.59,1.02v12.64c0,0.42-0.23,0.81-0.59,1.02l-10.95,6.32
				C14.23,27.88,13.77,27.88,13.41,27.66z M4.92,19.92l8.48,4.9c0.37,0.21,0.82,0.21,1.18,0l8.48-4.9c0.37-0.21,0.59-0.6,0.59-1.02
				V9.1c0-0.42-0.23-0.81-0.59-1.02l-8.48-4.9c-0.37-0.21-0.82-0.21-1.18,0l-8.48,4.9C4.56,8.29,4.33,8.68,4.33,9.1v9.8
				C4.33,19.32,4.56,19.71,4.92,19.92z"/>
		</g>
		<g>
			<path class="st0" d="M14,19.12c-2.82,0-5.12-2.29-5.12-5.11s2.3-5.13,5.12-5.13s5.11,2.29,5.11,5.12S16.82,19.12,14,19.12z
				 M14,11.35c-1.46,0-2.65,1.19-2.65,2.65s1.19,2.65,2.65,2.65s2.65-1.19,2.65-2.65S15.46,11.35,14,11.35z"/>
		</g>
	</g>
</g>
</svg>
