<?xml version="1.0" encoding="utf-8"?>
<!-- Generator: Adobe Illustrator 25.4.1, SVG Export Plug-In . SVG Version: 6.00 Build 0)  -->
<svg version="1.1" id="图层_1" xmlns="http://www.w3.org/2000/svg" xmlns:xlink="http://www.w3.org/1999/xlink" x="0px" y="0px"
	 viewBox="0 0 28 28" style="enable-background:new 0 0 28 28;" xml:space="preserve">
<style type="text/css">
	.st0{fill:#44C6FF;}
</style>
<g id="帮助_00000004547582515855239880000002216586959247023273_">
	<g id="帮助">
		<g>
			<path class="st0" d="M0.68,25.06V2c0-0.55,0.45-1,1-1h24.65c0.55,0,1,0.45,1,1v18.59c0,0.55-0.45,1-1,1H7.48
				c-0.24,0-0.48,0.09-0.66,0.25l-4.47,3.97C1.7,26.38,0.68,25.92,0.68,25.06z M3.18,4.5v16.87c0,0.14,0.16,0.21,0.27,0.12
				l2.42-2.14c0.18-0.16,0.42-0.25,0.66-0.25h17.3c0.55,0,1-0.45,1-1V4.5c0-0.55-0.45-1-1-1H4.18C3.62,3.5,3.18,3.95,3.18,4.5z"/>
		</g>
		<g>
			<path class="st0" d="M14.23,12.8h-0.5c-0.55,0-1-0.45-1-1V6.93c0-0.55,0.45-1,1-1h0.5c0.55,0,1,0.45,1,1v4.87
				C15.23,12.35,14.79,12.8,14.23,12.8z"/>
		</g>
		<g>
			<path class="st0" d="M14.23,16.65h-0.5c-0.55,0-1-0.45-1-1v-0.49c0-0.55,0.45-1,1-1h0.5c0.55,0,1,0.45,1,1v0.49
				C15.23,16.2,14.79,16.65,14.23,16.65z"/>
		</g>
	</g>
</g>
</svg>
