<?xml version="1.0" encoding="utf-8"?>
<!-- Generator: Adobe Illustrator 25.4.1, SVG Export Plug-In . SVG Version: 6.00 Build 0)  -->
<svg version="1.1" id="图层_1" xmlns="http://www.w3.org/2000/svg" xmlns:xlink="http://www.w3.org/1999/xlink" x="0px" y="0px"
	 viewBox="0 0 158 162" style="enable-background:new 0 0 158 162;" xml:space="preserve">
<style type="text/css">
	.st0{fill-rule:evenodd;clip-rule:evenodd;fill:#0E1D23;}
	.st1{fill-rule:evenodd;clip-rule:evenodd;fill:#26C6FF;}
	.st2{fill:#26C6FF;}
</style>
<g id="方行单行底背景_00000136390492230139751250000009313249801689737612_">
	<g id="方行单行底背景">
		<rect x="57.82" y="28.31" class="st0" width="100.18" height="104.19"/>
		<rect x="17.95" y="5.04" class="st0" width="40.18" height="156.96"/>
		<polygon class="st0" points="150.86,5.04 57.82,5.04 57.82,28.73 158,28.73 158,12.17 		"/>
		<g>
			<g id="矩形_20_拷贝_7_00000162344898467414991880000000391739569777838767_">
				<g>
					<rect x="157.09" y="27.14" class="st1" width="0.82" height="0.7"/>
				</g>
			</g>
			<g id="矩形_20_拷贝_7_00000014621095711800634530000002599564953304891553_">
				<g>
					<rect x="157.09" y="25.38" class="st1" width="0.82" height="0.7"/>
				</g>
			</g>
			<g id="矩形_20_拷贝_7_00000106144705038940102840000009794181238892456081_">
				<g>
					<rect x="157.09" y="23.62" class="st1" width="0.82" height="0.7"/>
				</g>
			</g>
			<g id="矩形_20_拷贝_7_00000106862462481568397040000008734121840489059981_">
				<g>
					<path class="st1" d="M157.09,19.05v3.52h0.82v-3.52H157.09z"/>
				</g>
			</g>
			<g>
				<rect x="142.75" y="5.04" class="st2" width="1" height="2"/>
				<rect x="138.76" y="5.04" class="st2" width="1" height="2"/>
				<rect x="133.76" y="5.04" class="st2" width="1" height="2"/>
				<rect x="129.76" y="5.04" class="st2" width="1" height="2"/>
				<rect x="125.77" y="5.04" class="st2" width="1" height="2"/>
				<rect x="120.77" y="5.04" class="st2" width="1" height="2"/>
				<rect x="116.77" y="5.04" class="st2" width="1" height="2"/>
				<rect x="111.78" y="5.04" class="st2" width="1" height="2"/>
				<rect x="107.78" y="5.04" class="st2" width="1" height="2"/>
				<rect x="103.78" y="5.04" class="st2" width="1" height="2"/>
				<rect x="98.79" y="5.04" class="st2" width="1" height="2"/>
				<rect x="94.79" y="5.04" class="st2" width="1" height="2"/>
				<rect x="90.79" y="5.04" class="st2" width="1" height="2"/>
				<rect x="85.8" y="5.04" class="st2" width="1" height="2"/>
				<rect x="81.8" y="5.04" class="st2" width="1" height="2"/>
				<rect x="76.8" y="5.04" class="st2" width="1" height="2"/>
				<rect x="72.81" y="5.04" class="st2" width="1" height="2"/>
				<rect x="68.81" y="5.04" class="st2" width="1" height="2"/>
				<rect x="63.81" y="5.04" class="st2" width="1" height="2"/>
				<rect x="59.82" y="5.04" class="st2" width="1" height="2"/>
				<path class="st2" d="M152.35,3.36c-1.27,0-2.29,1.03-2.29,2.29c0,1.27,1.03,2.29,2.29,2.29s2.29-1.03,2.29-2.29
					C154.65,4.38,153.62,3.36,152.35,3.36z"/>
				<path class="st2" d="M152.35,0c-3.11,0-5.65,2.53-5.65,5.65s2.53,5.65,5.65,5.65c3.11,0,5.65-2.54,5.65-5.65S155.47,0,152.35,0z
					 M152.35,10.3c-2.56,0-4.65-2.09-4.65-4.65S149.79,1,152.35,1c2.56,0,4.65,2.09,4.65,4.65S154.92,10.3,152.35,10.3z"/>
			</g>
		</g>
		<rect y="28.31" class="st0" width="18.86" height="104.19"/>
		<polygon class="st0" points="18.86,5.04 6.87,5.04 0,12.09 0,28.73 18.86,28.73 		"/>
		<g>
			<polygon class="st0" points="57.82,132.22 57.82,162 150.85,162 158,154.84 158,132.22 			"/>
			<g>
				<g>
					<polygon class="st0" points="155.78,145 155.78,147.96 156.52,147.96 156.52,155.04 151.05,160.52 143.97,160.52 
						143.97,159.78 141.01,159.78 141.01,162 143.23,162 143.97,162 152.09,162 152.09,161.57 157.57,156.09 158,156.09 158,147.96 
						158,147.22 158,145 					"/>
					<rect x="157.09" y="136.37" class="st0" width="0.82" height="5.63"/>
					<rect x="157.09" y="134.61" class="st0" width="0.82" height="0.7"/>
					<rect x="157.09" y="132.85" class="st0" width="0.82" height="0.7"/>
				</g>
				<g>
					<polygon class="st1" points="155.78,145 155.78,147.96 156.52,147.96 156.52,155.04 151.05,160.52 143.97,160.52 
						143.97,159.78 141.01,159.78 141.01,162 143.23,162 143.97,162 152.09,162 152.09,161.57 157.57,156.09 158,156.09 158,147.96 
						158,147.22 158,145 					"/>
					<rect x="157.09" y="136.37" class="st1" width="0.82" height="5.63"/>
					<rect x="157.09" y="134.61" class="st1" width="0.82" height="0.7"/>
					<rect x="157.09" y="132.85" class="st1" width="0.82" height="0.7"/>
				</g>
			</g>
			<polygon class="st0" points="18.86,132.22 0,132.22 0,155.08 5.63,162 18.86,162 			"/>
			<g>
				<polygon class="st1" points="6.33,160.52 3.01,156.43 3.59,155.95 1.71,153.67 0,155.08 0.76,156 5.63,162 5.63,162 14.49,162 
					14.49,160.52 				"/>
				<rect x="0.09" y="141.37" class="st1" width="0.82" height="5.63"/>
				<rect x="0.09" y="139.61" class="st1" width="0.82" height="0.7"/>
				<rect x="0.09" y="137.85" class="st1" width="0.82" height="0.7"/>
				<rect x="0.09" y="136.09" class="st1" width="0.82" height="0.7"/>
				<rect x="0.09" y="134.33" class="st1" width="0.82" height="0.7"/>
				<rect x="0.09" y="132.57" class="st1" width="0.82" height="0.7"/>
			</g>
		</g>
		<g>
			<polygon class="st1" points="16.99,5.04 16.99,7.26 14.03,7.26 14.03,6.52 6.95,6.52 1.48,12 1.48,19.08 2.22,19.08 2.22,22.04 
				0,22.04 0,19.82 0,19.08 0,10.95 0.43,10.95 5.91,5.47 5.91,5.04 			"/>
			<rect x="0.09" y="24.04" class="st1" width="0.82" height="3.52"/>
		</g>
	</g>
</g>
</svg>
