<?xml version="1.0" encoding="utf-8"?>
<!-- Generator: Adobe Illustrator 25.4.1, SVG Export Plug-In . SVG Version: 6.00 Build 0)  -->
<svg version="1.1" id="图层_1" xmlns="http://www.w3.org/2000/svg" xmlns:xlink="http://www.w3.org/1999/xlink" x="0px" y="0px"
	 viewBox="0 0 339 266" style="enable-background:new 0 0 339 266;" xml:space="preserve">
<style type="text/css">
	.st0{fill-rule:evenodd;clip-rule:evenodd;fill:#0E1D23;}
	.st1{fill:#44C6FF;}
</style>
<g id="多行底背景_00000161606032335106346840000002189280482377321351_">
	<g id="多行底背景">
		<g>
			<g id="矩形_13_拷贝_5_00000084511184806282546000000005416162796522387119_">
				<g>
					<path class="st0" d="M0,232.98v5.93l28.07,26.58l247.43,0.01l11.08-10.58L339,254.9v-21.92H0z"/>
				</g>
			</g>
			<g>
				<path class="st1" d="M8.98,243.46c-2.32,0-4.2,1.87-4.2,4.18s1.88,4.18,4.2,4.18s4.2-1.87,4.2-4.18S11.3,243.46,8.98,243.46z"/>
				<path class="st1" d="M335.15,251.24c-1.89,0-3.46,1.37-3.79,3.16h-45.41L274.82,265H28.24l-11.96-11.42
					c1.28-1.57,2.06-3.57,2.06-5.75c0-5.03-4.11-9.12-9.17-9.12S0,242.8,0,247.83s4.11,9.12,9.17,9.12c2.51,0,4.78-1.01,6.44-2.64
					L27.83,266h247.39l11.13-10.6h44.97c0.17,1.96,1.81,3.51,3.82,3.51c2.13,0,3.85-1.72,3.85-3.84S337.27,251.24,335.15,251.24z
					 M9.17,255.96c-4.5,0-8.16-3.64-8.16-8.12s3.66-8.12,8.16-8.12s8.16,3.64,8.16,8.12S13.67,255.96,9.17,255.96z M335.15,257.91
					c-1.57,0-2.85-1.27-2.85-2.84s1.28-2.84,2.85-2.84s2.85,1.27,2.85,2.84C338,256.64,336.72,257.91,335.15,257.91z"/>
				<polygon class="st1" points="285.71,264.95 286.42,265.66 293.22,258.89 292.51,258.18 				"/>
				<polygon class="st1" points="295.76,264.95 296.47,265.66 303.27,258.89 302.56,258.18 				"/>
				<polygon class="st1" points="306.01,264.95 306.72,265.66 313.52,258.89 312.81,258.18 				"/>
				<polygon class="st1" points="316.03,264.95 316.74,265.66 323.54,258.89 322.83,258.18 				"/>
			</g>
		</g>
		<rect y="17.88" class="st0" width="339" height="218.33"/>
		<g>
			<g id="矩形_13_拷贝_5">
				<g>
					<polygon class="st0" points="323.6,7.85 318.44,13.01 283.65,12.98 271.43,0.55 17.72,0.55 0,16.93 0,20.55 339,20.55 339,7.9 
											"/>
				</g>
			</g>
			<g>
				<path class="st1" d="M335.98,4.9c-1.47,0-2.69,1.05-2.96,2.45h-9.34l-5.11,5.13h-34.3L272.93,1h9.65l3.41,4.73h9.37
					c0.17,2.07,1.88,3.71,3.98,3.71c2.21,0,4.01-1.81,4.01-4.03s-1.8-4.03-4.01-4.03c-1.98,0-3.62,1.45-3.95,3.35h-8.9L283.1,0H17.6
					L7.14,9.79C6.39,9.23,5.48,8.88,4.47,8.88C2,8.88,0,10.89,0,13.38c0,2.48,2,4.5,4.47,4.5s4.47-2.01,4.47-4.5
					c0-1.11-0.42-2.11-1.08-2.9L17.99,1h253.54l12.32,12.48h35.13l5.11-5.13h8.92c0.21,1.47,1.45,2.61,2.97,2.61
					c1.67,0,3.02-1.36,3.02-3.03S337.65,4.9,335.98,4.9z M299.35,2.38c1.66,0,3.02,1.36,3.02,3.03s-1.35,3.03-3.02,3.03
					c-1.66,0-3.02-1.36-3.02-3.03C296.33,3.73,297.68,2.38,299.35,2.38z"/>
				<ellipse class="st1" cx="299.35" cy="5.33" rx="1.71" ry="1.71"/>
			</g>
		</g>
	</g>
</g>
</svg>
