<svg xmlns="http://www.w3.org/2000/svg" viewBox="0 0 320 320"><defs><style>.cls-1{fill:#db6a6a;opacity:0;}.cls-2{fill:#50ace3;}</style></defs><g id="_04" data-name="04"><rect class="cls-1" width="320" height="320"/><path class="cls-2" d="M109.23,90.63l.44-.32-4.16-5.73-.44.32Z"/><path class="cls-2" d="M100.94,97.54l.4-.37L96.5,92l-.4.37Z"/><path class="cls-2" d="M118.32,84.8l.47-.26-3.41-6.21-.47.27Z"/><path class="cls-2" d="M93.57,105.43l.35-.42-5.45-4.51-.35.42Z"/><path class="cls-2" d="M138.32,76.78l.53-.13-1.76-6.86-.53.13Z"/><path class="cls-2" d="M128.06,80.16l.51-.21L126,73.37l-.5.21Z"/><path class="cls-2" d="M75.46,144.16c0-.18.06-.36.1-.54l-7-1.33c0,.18-.06.36-.1.54Z"/><path class="cls-2" d="M148.92,74.73l.54-.07-.88-7-.55.06Z"/><path class="cls-2" d="M74.14,154.87c0-.18,0-.36,0-.54l-7.07-.44,0,.54Z"/><path class="cls-2" d="M87.25,114.17l.29-.46-6-3.79-.29.46Z"/><path class="cls-2" d="M74.18,165.67c0-.18,0-.36,0-.54l-7.06.44,0,.54Z"/><path class="cls-2" d="M82.06,123.64c.08-.16.16-.33.23-.49l-6.4-3-.23.5Z"/><path class="cls-2" d="M78.11,133.69c.06-.17.11-.35.17-.52L71.55,131c-.06.18-.12.35-.17.52Z"/><path class="cls-2" d="M237.64,123.15c.08.16.16.33.23.49l6.41-3-.23-.5Z"/><path class="cls-2" d="M218.6,97.17l.4.37,4.84-5.16-.4-.37Z"/><path class="cls-2" d="M232.4,113.71l.29.46,6-3.79-.28-.46Z"/><path class="cls-2" d="M241.66,133.17c.06.17.11.35.17.52l6.73-2.19c-.05-.17-.11-.34-.17-.52Z"/><path class="cls-2" d="M159.7,66.94V74h.54V66.94h-.54Z"/><path class="cls-2" d="M251.33,142.29l-7,1.33c0,.18.07.36.1.54l7-1.33C251.4,142.65,251.37,142.47,251.33,142.29Z"/><path class="cls-2" d="M170.48,74.66l.54.07.88-7-.54-.06Z"/><path class="cls-2" d="M181.09,76.65l.53.13,1.76-6.86-.53-.13Z"/><path class="cls-2" d="M210.27,90.31l.44.32,4.16-5.73-.44-.32Z"/><path class="cls-2" d="M191.37,80l.5.21,2.61-6.58-.5-.21Z"/><path class="cls-2" d="M201.15,84.54l.47.26L205,78.6l-.48-.27Z"/><path class="cls-2" d="M226,105l.35.42,5.46-4.51-.35-.42Z"/><path class="cls-2" d="M219,222.46l-.4.37,4.84,5.16.4-.37Z"/><path class="cls-2" d="M181.62,243.22l-.53.13,1.76,6.86.53-.13Z"/><path class="cls-2" d="M226.36,214.57,226,215l5.46,4.51.35-.42Z"/><path class="cls-2" d="M201.62,235.2l-.47.26,3.4,6.21.48-.27Z"/><path class="cls-2" d="M232.69,205.83l-.29.46,6,3.79.28-.46Z"/><path class="cls-2" d="M191.87,239.84l-.5.21,2.61,6.58.5-.21Z"/><path class="cls-2" d="M210.71,229.37l-.44.32,4.16,5.73.44-.32Z"/><path class="cls-2" d="M237.87,196.36c-.07.16-.15.33-.23.49l6.41,3,.23-.5Z"/><path class="cls-2" d="M245.76,154.33l0,.54,7.07-.44,0-.54Z"/><path class="cls-2" d="M245.79,165.13l0,.54,7.07.44,0-.54Z"/><path class="cls-2" d="M244.48,175.84c0,.18-.07.36-.1.54l7,1.33c0-.18.07-.36.11-.54Z"/><path class="cls-2" d="M75.56,176.38c0-.18-.07-.36-.1-.54l-7,1.33c0,.18.07.36.1.54Z"/><path class="cls-2" d="M241.83,186.31c-.06.17-.11.35-.17.52l6.73,2.19c.06-.18.12-.35.17-.52Z"/><path class="cls-2" d="M93.92,215l-.35-.42-5.45,4.51.35.42Z"/><path class="cls-2" d="M109.67,229.69l-.44-.32-4.16,5.73.44.32Z"/><path class="cls-2" d="M101.34,222.83l-.4-.37-4.84,5.16.4.37Z"/><path class="cls-2" d="M87.54,206.29l-.29-.46-6,3.79.29.46Z"/><path class="cls-2" d="M78.28,186.83c-.06-.17-.11-.35-.17-.52l-6.73,2.19c.05.17.11.34.17.52Z"/><path class="cls-2" d="M82.29,196.85c-.07-.16-.15-.33-.23-.49l-6.4,3,.23.5Z"/><path class="cls-2" d="M138.85,243.35l-.53-.13-1.76,6.86.53.13Z"/><path class="cls-2" d="M149.46,245.34l-.54-.06-.89,7,.55.06Z"/><path class="cls-2" d="M160.24,253.06V246h-.54v7.08h.54Z"/><path class="cls-2" d="M128.57,240.05l-.51-.21-2.6,6.58.5.21Z"/><path class="cls-2" d="M171,245.28l-.54.06.88,7,.54-.06Z"/><path class="cls-2" d="M118.79,235.46l-.47-.26-3.41,6.2.47.27Z"/></g></svg>