<svg id="图层_1" data-name="图层 1" xmlns="http://www.w3.org/2000/svg" viewBox="0 0 154.51 119.18"><defs><style>.cls-1{fill:#0c181d;fill-rule:evenodd;}.cls-2{fill:#26c6ff;}</style></defs><path class="cls-1" d="M119.37,108H12A11.51,11.51,0,0,1,.5,96.48V12A11.51,11.51,0,0,1,12,.5H142.51A11.51,11.51,0,0,1,154,12V96.48a11.51,11.51,0,0,1-11.5,11.5H131.14l-5.88,10.2Z"/><path class="cls-2" d="M142.51,1a11,11,0,0,1,11,11V96.48a11,11,0,0,1-11,11H130.86l-.29.5-5.31,9.2-5.32-9.2-.28-.5H12a11,11,0,0,1-11-11V12A11,11,0,0,1,12,1H142.51m0-1H12A12,12,0,0,0,0,12V96.48a12,12,0,0,0,12,12H119.08l6.18,10.7,6.17-10.7h11.08a12,12,0,0,0,12-12V12a12,12,0,0,0-12-12Z"/><rect class="cls-2" x="14.68" y="53.81" width="125.16" height="1"/></svg>